<?xml version="1.0" encoding="utf-8"?>
<!-- Generator: Adobe Illustrator 20.1.0, SVG Export Plug-In . SVG Version: 6.00 Build 0)  -->
<svg version="1.1" xmlns="http://www.w3.org/2000/svg" xmlns:xlink="http://www.w3.org/1999/xlink" x="0px" y="0px"
	 viewBox="0 0 96.5 77.3" style="enable-background:new 0 0 96.5 77.3;" xml:space="preserve">
<style type="text/css">
	.st0{fill:#342D26;}
	.st1{fill:#E8E8E0;}
	.st2{fill-rule:evenodd;clip-rule:evenodd;fill:#E8E8E0;}
	.st3{fill:#96233C;}
	.st4{fill:#6C0014;}
	.st5{fill:#EACF33;}
	.st6{fill:#E29523;}
	.st7{fill:#FFFFF4;}
	.st8{fill:#F0F0DE;}
	.st9{fill:#64A6DC;}
	.st10{fill:#4377AE;}
	.st11{fill:#F3F0EC;}
	.st12{fill:#4D3B52;}
	.st13{fill:#B0701C;}
	.st14{fill:#804218;}
	.st15{fill:#E6E5CC;}
	.st16{fill:#571902;}
	.st17{fill:#1E2A39;}
	.st18{fill:#ABAA76;}
	.st19{fill:#767544;}
	.st20{fill:#28152C;}
	.st21{fill:#C2C2B9;}
	.st22{fill:#DB330A;}
	.st23{fill:#9F1301;}
	.st24{fill:#EBB24A;}
	.st25{fill:#E17424;}
	.st26{fill:#E4C232;}
	.st27{fill:#E29E35;}
	.st28{fill:#5187AB;}
	.st29{fill:#D0D5D6;}
	.st30{fill:#7B7325;}
	.st31{fill:#524C19;}
	.st32{fill:#E3BE9E;}
	.st33{fill:#E9E9E9;}
	.st34{fill:#C29B7A;}
	.st35{fill:#6B3515;}
	.st36{fill:#D2CFCE;}
	.st37{fill:#D45820;}
	.st38{fill:#75C0F2;}
	.st39{fill:#4291BC;}
	.st40{fill:#4EA3EA;}
	.st41{fill:#2A75A8;}
	.st42{fill:#686868;}
	.st43{fill:#E8A339;}
	.st44{fill:#323E4D;}
	.st45{fill:#1E2F3F;}
	.st46{fill:#DF6E61;}
	.st47{fill:#C34B44;}
	.st48{fill:#E0A593;}
	.st49{fill:#EBECEC;}
	.st50{fill:#5D8BA7;}
	.st51{fill:#424242;}
	.st52{fill:#9CC34C;}
	.st53{fill:#6E9329;}
	.st54{fill:#A51201;}
	.st55{fill:#503324;}
	.st56{fill:#2E3D56;}
	.st57{fill:#1F293B;}
	.st58{fill:none;}
	.st59{fill:#E29151;}
	.st60{fill:#B93D33;}
	.st61{fill:#C73A15;}
	.st62{fill:#DD782D;}
	.st63{fill:#C9C8AF;}
	.st64{fill:#4D87C7;}
	.st65{fill:#BC3320;}
	.st66{fill:#86C679;}
</style>
<g id="Background">
</g>
<g id="Objects">
	<g>
		<g>
			<path class="st38" d="M85.8,66.4c0,1.7-1.2,3-2.7,3H9.9c-1.5,0-2.7-1.4-2.7-3V19.8c0-1.7,1.2-3,2.7-3h73.2c1.5,0,2.7,1.4,2.7,3
				V66.4z"/>
		</g>
		<g>
			<g>
				<path class="st39" d="M49.2,49.9c-1.3,1.1-3.6,1.1-4.9,0L7.2,21.2v6.1L44.3,56c1.4,1,3.6,1,4.9,0l36.6-28.9V21L49.2,49.9z"/>
			</g>
			<path class="st33" d="M83.1,16.8H9.9c-1.5,0-2.7,1.4-2.7,3v1.4l37.2,28.7c1.4,1,3.6,1,4.9,0L85.8,21v-1.2
				C85.8,18.1,84.6,16.8,83.1,16.8z"/>
		</g>
	</g>
	<g>
		<g>
			<path class="st40" d="M83.1,16.8H46.8v52.6h36.2c1.5,0,2.7-1.4,2.7-3V19.8C85.8,18.1,84.6,16.8,83.1,16.8z"/>
		</g>
		<g>
			<g>
				<path class="st41" d="M49.2,49.9c-0.7,0.5-1.5,0.8-2.4,0.8v6.1c0.9,0,1.7-0.3,2.4-0.8l36.6-28.9V21L49.2,49.9z"/>
			</g>
			<path class="st36" d="M83.1,16.8H46.8v33.9c0.9,0,1.7-0.3,2.4-0.8L85.8,21v-1.2C85.8,18.1,84.6,16.8,83.1,16.8z"/>
		</g>
	</g>
	<g>
		<circle class="st42" cx="73.8" cy="21.4" r="15.7"/>
		<g>
			<path class="st7" d="M83,18.1c1.6,0,2.9,1.3,2.9,2.9l0,0c0,1.6-1.3,2.9-2.9,2.9h-19c-1.6,0-2.9-1.3-2.9-2.9l0,0
				c0-1.6,1.3-2.9,2.9-2.9H83z"/>
			<path class="st7" d="M76.4,30.4c0,1.6-1.3,2.9-2.9,2.9l0,0c-1.6,0-2.9-1.3-2.9-2.9v-19c0-1.6,1.3-2.9,2.9-2.9l0,0
				c1.6,0,2.9,1.3,2.9,2.9V30.4z"/>
		</g>
	</g>
</g>
</svg>
